<mxfile host="65bd71144e" modified="2021-03-11T01:09:14.769Z" agent="5.0 (Windows NT 10.0; Win64; x64) AppleWebKit/537.36 (KHTML, like Gecko) Code/1.54.0 Chrome/87.0.4280.141 Electron/11.3.0 Safari/537.36" etag="njgwu_pomqaN3XnnPrM0" version="14.2.4" type="embed">
    <diagram id="h8f5nLS42OE4RTQgzktA" name="Page-1">
        <mxGraphModel dx="1276" dy="476" grid="1" gridSize="10" guides="1" tooltips="1" connect="1" arrows="1" fold="1" page="1" pageScale="1" pageWidth="850" pageHeight="1100" math="0" shadow="0">
            <root>
                <mxCell id="0"/>
                <mxCell id="1" parent="0"/>
                <mxCell id="22" value="" style="group" vertex="1" connectable="0" parent="1">
                    <mxGeometry x="60" y="20" width="740" height="440" as="geometry"/>
                </mxCell>
                <mxCell id="23" value="" style="rounded=0;whiteSpace=wrap;html=1;" vertex="1" parent="22">
                    <mxGeometry x="-20" y="-20" width="760" height="460" as="geometry"/>
                </mxCell>
                <mxCell id="2" value="webapp&lt;br&gt;&lt;br&gt;&lt;br&gt;&lt;br&gt;&lt;br&gt;&lt;br&gt;&lt;br&gt;&lt;br&gt;&lt;br&gt;" style="shape=folder;fontStyle=1;spacingTop=10;tabWidth=40;tabHeight=14;tabPosition=left;html=1;" parent="22" vertex="1">
                    <mxGeometry width="710" height="180" as="geometry"/>
                </mxCell>
                <mxCell id="6" value="WEB-INF" style="shape=folder;fontStyle=1;spacingTop=10;tabWidth=40;tabHeight=14;tabPosition=left;html=1;" parent="22" vertex="1">
                    <mxGeometry x="30" y="80" width="140" height="70" as="geometry"/>
                </mxCell>
                <mxCell id="7" value="maproulette/gwt" style="shape=folder;fontStyle=1;spacingTop=10;tabWidth=40;tabHeight=14;tabPosition=left;html=1;" parent="22" vertex="1">
                    <mxGeometry x="200" y="80" width="140" height="70" as="geometry"/>
                </mxCell>
                <mxCell id="8" value="pages" style="shape=folder;fontStyle=1;spacingTop=10;tabWidth=40;tabHeight=14;tabPosition=left;html=1;" parent="22" vertex="1">
                    <mxGeometry x="530" y="80" width="140" height="70" as="geometry"/>
                </mxCell>
                <mxCell id="9" value="assets" style="shape=folder;fontStyle=1;spacingTop=10;tabWidth=40;tabHeight=14;tabPosition=left;html=1;" parent="22" vertex="1">
                    <mxGeometry x="365" y="80" width="140" height="70" as="geometry"/>
                </mxCell>
                <mxCell id="21" value="" style="edgeStyle=orthogonalEdgeStyle;rounded=0;orthogonalLoop=1;jettySize=auto;html=1;" edge="1" parent="22" source="8" target="9">
                    <mxGeometry relative="1" as="geometry"/>
                </mxCell>
                <mxCell id="15" value="java&lt;br&gt;&lt;br&gt;&lt;br&gt;&lt;br&gt;&lt;br&gt;&lt;br&gt;&lt;br&gt;&lt;br&gt;&lt;br&gt;" style="shape=folder;fontStyle=1;spacingTop=10;tabWidth=40;tabHeight=14;tabPosition=left;html=1;" parent="22" vertex="1">
                    <mxGeometry y="240" width="710" height="180" as="geometry"/>
                </mxCell>
                <mxCell id="20" value="" style="edgeStyle=orthogonalEdgeStyle;rounded=0;orthogonalLoop=1;jettySize=auto;html=1;entryX=0.501;entryY=0.065;entryDx=0;entryDy=0;entryPerimeter=0;" edge="1" parent="22" source="2" target="15">
                    <mxGeometry relative="1" as="geometry"/>
                </mxCell>
                <mxCell id="16" value="fi.foyt.foursquare" style="shape=folder;fontStyle=1;spacingTop=10;tabWidth=40;tabHeight=14;tabPosition=left;html=1;" parent="22" vertex="1">
                    <mxGeometry x="30" y="320" width="140" height="70" as="geometry"/>
                </mxCell>
                <mxCell id="17" value="com.pixeltron" style="shape=folder;fontStyle=1;spacingTop=10;tabWidth=40;tabHeight=14;tabPosition=left;html=1;" parent="22" vertex="1">
                    <mxGeometry x="200" y="320" width="140" height="70" as="geometry"/>
                </mxCell>
                <mxCell id="19" value="org.json" style="shape=folder;fontStyle=1;spacingTop=10;tabWidth=40;tabHeight=14;tabPosition=left;html=1;" parent="22" vertex="1">
                    <mxGeometry x="365" y="320" width="140" height="70" as="geometry"/>
                </mxCell>
            </root>
        </mxGraphModel>
    </diagram>
</mxfile>